<svg width="19" height="17" viewBox="0 0 19 17" fill="none" xmlns="http://www.w3.org/2000/svg">
<path fill-rule="evenodd" clip-rule="evenodd" d="M10.0929 15.7596L10.0819 15.7616L10.0109 15.7966L9.99093 15.8006L9.97693 15.7966L9.90593 15.7616C9.89526 15.7583 9.88726 15.76 9.88193 15.7666L9.87793 15.7766L9.86093 16.2046L9.86593 16.2246L9.87593 16.2376L9.97993 16.3116L9.99493 16.3156L10.0069 16.3116L10.1109 16.2376L10.1229 16.2216L10.1269 16.2046L10.1099 15.7776C10.1073 15.767 10.1016 15.761 10.0929 15.7596ZM10.3579 15.6466L10.3449 15.6486L10.1599 15.7416L10.1499 15.7516L10.1469 15.7626L10.1649 16.1926L10.1699 16.2046L10.1779 16.2116L10.3789 16.3046C10.3916 16.308 10.4013 16.3053 10.4079 16.2966L10.4119 16.2826L10.3779 15.6686C10.3746 15.6566 10.3679 15.6493 10.3579 15.6466ZM9.64293 15.6486C9.63852 15.646 9.63325 15.6451 9.62822 15.6462C9.62319 15.6473 9.61879 15.6504 9.61593 15.6546L9.60993 15.6686L9.57593 16.2826C9.57659 16.2946 9.58226 16.3026 9.59293 16.3066L9.60793 16.3046L9.80893 16.2116L9.81893 16.2036L9.82293 16.1926L9.83993 15.7626L9.83693 15.7506L9.82693 15.7406L9.64293 15.6486Z" fill="#69009A"/>
<path fill-rule="evenodd" clip-rule="evenodd" d="M7.93043e-07 1.50155C-0.000372059 1.13877 0.13074 0.788152 0.369052 0.514632C0.607365 0.241112 0.936728 0.0632259 1.29614 0.0139216C1.65555 -0.0353827 2.02065 0.0472361 2.32381 0.246475C2.62698 0.445714 2.84767 0.748071 2.945 1.09755C4.892 7.59954 14.103 7.60055 16.054 1.10255C16.1088 0.912502 16.2007 0.735177 16.3243 0.580778C16.4479 0.426379 16.6009 0.297955 16.7743 0.202896C16.9478 0.107837 17.1383 0.0480219 17.335 0.0268925C17.5317 0.00576311 17.7305 0.0237369 17.9202 0.0797795C18.1099 0.135822 18.2867 0.228827 18.4403 0.35344C18.5939 0.478054 18.7213 0.631816 18.8152 0.805876C18.9092 0.979936 18.9678 1.17086 18.9876 1.36765C19.0075 1.56444 18.9883 1.76322 18.931 1.95255C18.5893 3.12016 18.0395 4.21643 17.308 5.18855L18.268 6.14855C18.4112 6.28698 18.5254 6.45255 18.6039 6.6356C18.6824 6.81864 18.7237 7.01549 18.7254 7.21466C18.727 7.41383 18.689 7.61133 18.6134 7.79563C18.5379 7.97994 18.4265 8.14737 18.2856 8.28814C18.1447 8.42891 17.9771 8.54021 17.7928 8.61555C17.6084 8.69088 17.4108 8.72874 17.2117 8.72692C17.0125 8.72509 16.8157 8.68362 16.6327 8.60492C16.4498 8.52622 16.2843 8.41187 16.146 8.26855L15.136 7.25855C14.611 7.61814 14.0516 7.92464 13.466 8.17354L13.709 9.07954C13.8012 9.46011 13.7409 9.86164 13.541 10.1984C13.3411 10.5351 13.0175 10.7803 12.6393 10.8816C12.261 10.9829 11.8582 10.9323 11.5167 10.7406C11.1753 10.5489 10.9224 10.2312 10.812 9.85555L10.561 8.92055C9.856 8.99355 9.144 8.99355 8.439 8.92055L8.189 9.85555C8.0861 10.2398 7.83475 10.5675 7.49024 10.7665C7.14574 10.9655 6.7363 11.0194 6.352 10.9165C5.9677 10.8136 5.64002 10.5623 5.44105 10.2178C5.24207 9.87328 5.1881 9.46384 5.291 9.07954L5.533 8.17254C4.94777 7.9239 4.38869 7.61773 3.864 7.25855L2.854 8.26855C2.7157 8.41187 2.55023 8.52622 2.36727 8.60492C2.1843 8.68362 1.98749 8.72509 1.78832 8.72692C1.58915 8.72874 1.39162 8.69088 1.20724 8.61555C1.02286 8.54021 0.855329 8.42891 0.714424 8.28814C0.573519 8.14737 0.462061 7.97994 0.386553 7.79563C0.311044 7.61133 0.272999 7.41383 0.274635 7.21466C0.276271 7.01549 0.317556 6.81864 0.396082 6.6356C0.474608 6.45255 0.588802 6.28698 0.732001 6.14855L1.692 5.18855C0.962225 4.21802 0.413444 3.12384 0.0720008 1.95855C0.0245122 1.81085 0.000223351 1.65669 7.93043e-07 1.50155Z" fill="#69009A"/>
</svg>
