<svg width="21" height="22" viewBox="0 0 21 22" fill="none" xmlns="http://www.w3.org/2000/svg">
<path d="M5.013 1C3.709 1.129 2.831 1.419 2.175 2.076C1 3.253 1 5.148 1 8.939V12.959C1 16.749 1 18.645 2.175 19.823C3.35 21.001 5.242 21 9.025 21H11.032C14.815 21 16.707 21 17.882 19.823C18.949 18.753 19.048 17.106 19.057 13.977" stroke="white" stroke-width="1.5" stroke-linecap="round" stroke-linejoin="round"/>
<path d="M9.02523 6.00004L10.0282 9.50004C10.5882 10.61 11.2912 10.9 13.0382 11C14.4272 10.966 15.2332 10.802 15.9212 10.204C16.3902 9.79604 16.6022 9.18104 16.7052 8.56904L17.0492 6.50004M19.5572 4.50004V9.50004M7.10023 3.93304C8.68723 2.61604 10.1012 1.90904 13.0342 1.13104C13.3651 1.04368 13.7132 1.04541 14.0432 1.13604C16.6392 1.85004 18.0412 2.48404 19.9192 3.89404C19.9992 3.95404 20.0232 4.06604 19.9672 4.14904C19.3542 5.05104 17.9852 5.78204 14.6272 7.08404C13.9278 7.35317 13.1526 7.34889 12.4562 7.07204C8.88023 5.65204 7.23623 4.89204 7.03623 4.10304C7.02973 4.07156 7.03229 4.03887 7.04362 4.00878C7.05494 3.97869 7.07457 3.95243 7.10023 3.93304Z" stroke="white" stroke-width="1.5" stroke-linecap="round" stroke-linejoin="round"/>
</svg>
