<svg width="60" height="60" viewBox="0 0 60 60" fill="none" xmlns="http://www.w3.org/2000/svg">
<circle cx="30" cy="30" r="28.5" stroke="white" stroke-width="3"/>
<path d="M44.3074 22.7929L38.2071 16.6926C37.9884 16.4731 37.7285 16.2989 37.4423 16.18C37.1561 16.0612 36.8493 16 36.5394 16C36.2295 16 35.9226 16.0612 35.6364 16.18C35.3502 16.2989 35.0903 16.4731 34.8716 16.6926L17.6686 33.8956C17.2078 34.3564 16.791 35.0389 16.4891 35.7639C16.1871 36.4921 16 37.2721 16 37.9232V45H23.0768C23.7279 45 24.5048 44.8129 25.2329 44.5109C25.9611 44.209 26.642 43.7922 27.1028 43.3314L44.3074 26.1284C44.5269 25.9097 44.7011 25.6498 44.82 25.3636C44.9388 25.0774 45 24.7705 45 24.4606C45 24.1507 44.9388 23.8439 44.82 23.5577C44.7011 23.2715 44.5269 23.0116 44.3074 22.7929ZM20.353 35.6601L33.3949 22.6183L35.3324 24.5558L22.2905 37.5976L20.353 35.6601ZM23.0768 41.8547H20.7179L19.1453 40.2821V37.9232C19.1453 37.8021 19.1972 37.4435 19.3937 36.9717C19.4095 36.9403 24.0597 41.5921 24.0597 41.5921C23.5534 41.8028 23.1979 41.8547 23.0768 41.8547ZM25.3399 40.647L23.4024 38.7095L36.4442 25.6676L38.3817 27.6051L25.3399 40.647ZM39.4935 26.4933L34.5052 21.5049L36.5386 19.4715L41.5238 24.4599L39.4935 26.4933Z" fill="white"/>
</svg>
