<svg width="29" height="29" viewBox="0 0 29 29" fill="none" xmlns="http://www.w3.org/2000/svg">
<path d="M28.3074 6.79287L22.2071 0.692628C21.9884 0.473092 21.7285 0.298899 21.4423 0.180041C21.1561 0.0611836 20.8493 0 20.5394 0C20.2295 0 19.9226 0.0611836 19.6364 0.180041C19.3502 0.298899 19.0903 0.473092 18.8716 0.692628L1.66856 17.8956C1.20778 18.3564 0.791034 19.0389 0.489089 19.7639C0.187143 20.4921 0 21.2721 0 21.9232V29H7.07684C7.72791 29 8.50479 28.8129 9.23292 28.5109C9.96105 28.209 10.642 27.7922 11.1028 27.3314L28.3074 10.1284C28.5269 9.9097 28.7011 9.64978 28.82 9.36358C28.9388 9.07739 29 8.77054 29 8.46064C29 8.15075 28.9388 7.8439 28.82 7.5577C28.7011 7.2715 28.5269 7.01159 28.3074 6.79287ZM4.35304 19.6601L17.3949 6.6183L19.3324 8.55579L6.29053 21.5976L4.35304 19.6601ZM7.07684 25.8547H4.7179L3.14526 24.2821V21.9232C3.14526 21.8021 3.19716 21.4435 3.39374 20.9717C3.40947 20.9403 8.05974 25.5921 8.05974 25.5921C7.55335 25.8028 7.19794 25.8547 7.07684 25.8547ZM9.33986 24.647L7.40238 22.7095L20.4442 9.66764L22.3817 11.6051L9.33986 24.647ZM23.4935 10.4933L18.5052 5.50488L20.5386 3.47147L25.5238 8.45986L23.4935 10.4933Z" fill="white"/>
</svg>
