<svg width="152" height="84" viewBox="0 0 152 84" fill="none" xmlns="http://www.w3.org/2000/svg">
<path d="M70.049 58.6816L37.8537 76.9776L6.02429 59.1719V23.2975L37.8537 6.30493L70.049 24.6009" stroke="#F200FF" stroke-width="2" stroke-linecap="round"/>
<path d="M72.9759 21.3722L37.8538 2L2 21.3722V61.5516L37.8538 82L72.9759 61.5516" stroke="#F200FF" stroke-width="3" stroke-linecap="round"/>
<path d="M32.0002 41.462L36.0246 37.5158M44.4393 29.2647L49.5612 34.2871M44.4393 29.2647L36.0246 37.5158M44.4393 29.2647C46.0246 28.6668 49.4149 27.6862 50.293 28.5472C51.171 29.4082 50.171 32.7325 49.5612 34.2871M49.5612 34.2871L41.1466 42.5382M37.488 46.1257L41.1466 49.7131C42.0002 48.876 43.1954 46.2692 41.1466 42.5382M37.488 46.1257L41.1466 42.5382M37.488 46.1257L36.7563 45.4082M36.0246 37.5158C33.0978 34.6458 29.927 36.32 28.7075 37.5158L33.0978 41.8207M33.0978 41.8207L30.5368 44.3319L34.1953 47.9194L36.7563 45.4082M33.0978 41.8207L36.7563 45.4082M33.0978 50.4306L30.9026 52.5831M29.4392 48.6369L26.8782 51.1481M27.9758 45.4082L25.4148 47.9194" stroke="#F200FF" stroke-width="2"/>
<mask id="path-4-inside-1_54_16" fill="white">
<ellipse cx="43.7075" cy="35.0046" rx="1.46342" ry="1.43498"/>
</mask>
<path d="M43.1709 35.0046C43.1709 34.6557 43.4483 34.4395 43.7075 34.4395V38.4395C45.5831 38.4395 47.1709 36.9385 47.1709 35.0046H43.1709ZM43.7075 34.4395C43.9667 34.4395 44.2441 34.6557 44.2441 35.0046H40.2441C40.2441 36.9385 41.8319 38.4395 43.7075 38.4395V34.4395ZM44.2441 35.0046C44.2441 35.3534 43.9667 35.5696 43.7075 35.5696V31.5696C41.8319 31.5696 40.2441 33.0706 40.2441 35.0046H44.2441ZM43.7075 35.5696C43.4483 35.5696 43.1709 35.3534 43.1709 35.0046H47.1709C47.1709 33.0706 45.5831 31.5696 43.7075 31.5696V35.5696Z" fill="#F200FF" mask="url(#path-4-inside-1_54_16)"/>
<path d="M100.803 53.282H98.1072V32.0515L93.5955 45.196H91.6814L87.1892 32.0515V53.282H84.5134V27.7937H87.99L92.6384 41.114L97.3259 27.7937H100.803V53.282ZM123.986 30.0789H121.916L115.842 42.2859V50.9968H119.943V53.282H109.025V50.9968H113.146V42.2859L107.072 30.0789H105.002V27.7937H112.189V30.0789H110.08L114.513 39.6882L118.908 30.0789H116.799V27.7937H123.986V30.0789ZM145.431 36.407H143.146V30.0789H137.678V50.9968H141.779V53.282H130.861V50.9968H134.982V30.0789H129.513V36.407H127.228V27.7937H145.431V36.407Z" fill="white"/>
</svg>
