<svg width="22" height="16" viewBox="0 0 22 16" fill="none" xmlns="http://www.w3.org/2000/svg">
<path d="M19.8703 6.962C20.3443 7.582 20.3443 8.419 19.8703 9.038C18.3773 10.987 14.7953 15 10.6133 15C6.43134 15 2.84934 10.987 1.35634 9.038C1.12539 8.74127 1 8.37601 1 8C1 7.62399 1.12539 7.25873 1.35634 6.962C2.84934 5.013 6.43134 1 10.6133 1C14.7953 1 18.3773 5.013 19.8703 6.962Z" stroke="#69009A" stroke-width="2" stroke-linecap="round" stroke-linejoin="round"/>
<path d="M10.6133 11C12.2701 11 13.6133 9.65685 13.6133 8C13.6133 6.34315 12.2701 5 10.6133 5C8.95643 5 7.61328 6.34315 7.61328 8C7.61328 9.65685 8.95643 11 10.6133 11Z" stroke="#69009A" stroke-width="2" stroke-linecap="round" stroke-linejoin="round"/>
</svg>
