<svg width="16" height="16" viewBox="0 0 16 16" fill="none" xmlns="http://www.w3.org/2000/svg">
<path fill-rule="evenodd" clip-rule="evenodd" d="M11.9737 10.6206L16 14.6549L14.6585 16L10.6361 11.9695C9.29495 12.9815 7.62106 13.447 5.95124 13.2723C4.28141 13.0976 2.7396 12.2957 1.63607 11.0279C0.532542 9.76006 -0.0507866 8.12049 0.00347217 6.43911C0.057731 4.75773 0.74555 3.15935 1.92851 1.96562C3.11147 0.771886 4.70177 0.0714144 6.37937 0.00516623C8.05697 -0.061082 9.69736 0.511811 10.9704 1.60855C12.2435 2.7053 13.0547 4.24449 13.2408 5.91637C13.427 7.58825 12.9742 9.26874 11.9737 10.6196V10.6206ZM11.3836 6.65471C11.3836 5.39415 10.8839 4.18521 9.9943 3.29386C9.10472 2.4025 7.89819 1.90174 6.64014 1.90174C5.38209 1.90174 4.17556 2.4025 3.28598 3.29386C2.3964 4.18521 1.89664 5.39415 1.89664 6.65471C1.89664 7.91528 2.3964 9.12422 3.28598 10.0156C4.17556 10.9069 5.38209 11.4077 6.64014 11.4077C7.89819 11.4077 9.10472 10.9069 9.9943 10.0156C10.8839 9.12422 11.3836 7.91528 11.3836 6.65471Z" fill="black"/>
</svg>
