<svg width="16" height="17" viewBox="0 0 16 17" fill="none" xmlns="http://www.w3.org/2000/svg">
<path d="M7.00293 1.2572C7.4017 1.25729 7.79043 1.38289 8.11426 1.6156C8.4381 1.84839 8.68044 2.17704 8.80762 2.55505L8.86523 2.72498H9.0166L9.00488 2.99841V3.00134C9.00548 3.0843 9.0092 3.16763 9.01465 3.25037H8.41016V3.15955C8.41003 2.78642 8.26189 2.42827 7.99805 2.16443C7.73419 1.90059 7.37606 1.75243 7.00293 1.75232C6.62964 1.75232 6.27079 1.90047 6.00684 2.16443C5.74301 2.42827 5.59485 2.78644 5.59473 3.15955V3.25037H4.125L3.97754 3.26501C3.83358 3.2939 3.70009 3.36473 3.59473 3.47009C3.45418 3.61073 3.375 3.80154 3.375 4.00037V5.14978H9.63281C9.98002 5.69491 10.4526 6.1501 11.0146 6.47205C11.5434 6.77485 12.1335 6.95194 12.7393 6.99158L13 7.00037H13.001C13.0841 7.00011 13.1671 6.99603 13.25 6.9906V16.1302C13.2493 16.2084 13.2334 16.2857 13.2031 16.3578C13.1725 16.4304 13.1273 16.4967 13.0713 16.5521C13.0153 16.6073 12.9488 16.6514 12.876 16.681C12.8396 16.6958 12.802 16.7068 12.7637 16.7142L12.6465 16.725H1.35352C1.27488 16.7254 1.19687 16.7106 1.12402 16.681C1.05123 16.6514 0.984667 16.6073 0.928711 16.5521C0.872667 16.4967 0.827455 16.4304 0.796875 16.3578C0.78162 16.3215 0.77056 16.2838 0.762695 16.2455L0.75 16.1283V3.32556C0.752181 3.23737 0.773421 3.15025 0.811523 3.07068C0.849681 2.99118 0.904321 2.92057 0.97168 2.86365C1.03914 2.80668 1.11824 2.76491 1.20312 2.7406C1.28785 2.71638 1.37665 2.70949 1.46387 2.72205L1.48242 2.72498H5.13965L5.19727 2.55505C5.32443 2.17707 5.56682 1.84839 5.89062 1.6156C6.21457 1.3828 6.60401 1.2572 7.00293 1.2572ZM10.4053 7.14783C10.2796 7.14783 10.1551 7.17302 10.0391 7.22107C9.92304 7.26913 9.81735 7.33933 9.72852 7.4281L6.33496 10.8217L4.88184 9.36853C4.70236 9.18906 4.45889 9.08828 4.20508 9.08826C3.95124 9.08826 3.70781 9.18904 3.52832 9.36853C3.34889 9.54801 3.24805 9.79149 3.24805 10.0453C3.24811 10.2674 3.32526 10.4815 3.46484 10.6517L3.52832 10.722L6.3252 13.5189L6.50195 13.3422L10.9883 8.85486H11.0088L11.082 8.78162C11.1708 8.69279 11.241 8.5871 11.2891 8.47107C11.3371 8.35498 11.3623 8.2305 11.3623 8.10486C11.3623 7.97923 11.3371 7.85472 11.2891 7.73865C11.241 7.62261 11.1708 7.51692 11.082 7.4281C10.9932 7.3393 10.8875 7.26917 10.7715 7.22107C10.6844 7.18501 10.5925 7.16193 10.499 7.15271L10.4053 7.14783Z" fill="white" stroke="white" stroke-width="0.5"/>
<path d="M13 0.75C14.2426 0.75 15.25 1.75736 15.25 3C15.25 4.24264 14.2426 5.25 13 5.25C11.7574 5.25 10.75 4.24264 10.75 3C10.75 1.75736 11.7574 0.75 13 0.75Z" fill="white" stroke="white" stroke-width="0.5"/>
</svg>
