<svg width="20" height="20" viewBox="0 0 20 20" fill="none" xmlns="http://www.w3.org/2000/svg">
<path d="M10 0C7.34844 0 4.80312 1.05422 2.92969 2.92891C1.05433 4.80435 0.000536638 7.34779 0 10C0 12.6511 1.05469 15.1964 2.92969 17.0711C4.80312 18.9458 7.34844 20 10 20C12.6516 20 15.1969 18.9458 17.0703 17.0711C18.9453 15.1964 20 12.6511 20 10C20 7.34891 18.9453 4.80359 17.0703 2.92891C15.1969 1.05422 12.6516 0 10 0Z" fill="url(#paint0_linear_129_196)"/>
<path d="M4.52658 9.89441C7.4422 8.62441 9.38595 7.78712 10.3578 7.38253C13.136 6.22738 13.7125 6.02675 14.0891 6.01996C14.1719 6.01863 14.3563 6.0391 14.4766 6.13636C14.5766 6.21839 14.6047 6.32933 14.6188 6.40722C14.6313 6.48503 14.6485 6.66238 14.6344 6.80082C14.4844 8.38207 13.8328 12.2193 13.5016 13.9903C13.3625 14.7397 13.086 14.991 12.8188 15.0155C12.2375 15.0689 11.7969 14.6318 11.2344 14.2632C10.3547 13.6861 9.85783 13.3271 9.00314 12.7641C8.01564 12.1135 8.65626 11.7558 9.21876 11.1714C9.36564 11.0185 11.925 8.69113 11.9735 8.48003C11.9797 8.45363 11.986 8.35519 11.9266 8.30332C11.8688 8.25128 11.7828 8.2691 11.7203 8.28316C11.6313 8.30316 10.2266 9.23254 7.50158 11.0711C7.10314 11.3452 6.7422 11.4788 6.4172 11.4718C6.06095 11.4641 5.37345 11.2699 4.86251 11.1039C4.23751 10.9003 3.73908 10.7927 3.78283 10.4469C3.8047 10.2669 4.05314 10.0827 4.52658 9.89441Z" fill="white"/>
<defs>
<linearGradient id="paint0_linear_129_196" x1="1000" y1="0" x2="1000" y2="2000" gradientUnits="userSpaceOnUse">
<stop stop-color="#2AABEE"/>
<stop offset="1" stop-color="#229ED9"/>
</linearGradient>
</defs>
</svg>
