<svg width="1440" height="1281" viewBox="0 0 1440 1281" fill="none" xmlns="http://www.w3.org/2000/svg">
<g filter="url(#filter0_f_135_286)">
<path d="M1036.53 662.694C1036.53 498.256 1001.13 349.409 943.918 241.691C886.695 133.95 807.728 67.4735 720.633 67.4735C633.538 67.4735 554.57 133.95 497.348 241.691C440.136 349.409 404.735 498.256 404.735 662.694C404.735 827.133 440.136 975.979 497.348 1083.7C554.57 1191.44 633.538 1257.92 720.633 1257.92C807.728 1257.92 886.695 1191.44 943.918 1083.7C1001.13 975.979 1036.53 827.133 1036.53 662.694Z" stroke="#F200FF"/>
<path d="M878.566 914.179C1033.48 831.954 1156 729.337 1228.87 629.917C1301.77 530.463 1324.88 434.369 1281.36 365.068C1237.84 295.767 1135.76 266.119 1005.63 274.431C875.54 282.741 717.613 328.983 562.7 411.209C407.788 493.434 285.264 596.051 212.392 695.471C139.494 794.925 116.385 891.019 159.906 960.32C203.427 1029.62 305.502 1059.27 435.637 1050.96C565.726 1042.65 723.653 996.405 878.566 914.179Z" stroke="#F200FF"/>
<path d="M878.565 411.209C723.653 328.984 565.725 282.742 435.636 274.432C305.502 266.119 203.427 295.768 159.906 365.069C116.384 434.37 139.493 530.464 212.391 629.918C285.264 729.337 407.787 831.955 562.7 914.18C717.612 996.406 875.54 1042.65 1005.63 1050.96C1135.76 1059.27 1237.84 1029.62 1281.36 960.321C1324.88 891.019 1301.77 794.925 1228.87 695.471C1156 596.052 1033.48 493.435 878.565 411.209Z" stroke="#F200FF"/>
<g filter="url(#filter1_f_135_286)">
<path d="M1032.26 632.721C1032.26 468.673 996.941 320.329 940.003 213.124C882.983 105.766 804.809 40.5001 719.367 40.5001C633.926 40.5001 555.752 105.766 498.732 213.124C441.794 320.329 406.47 468.673 406.47 632.721C406.47 796.769 441.794 945.112 498.732 1052.32C555.752 1159.68 633.926 1224.94 719.367 1224.94C804.809 1224.94 882.983 1159.68 940.003 1052.32C996.941 945.112 1032.26 796.769 1032.26 632.721Z" stroke="#F200FF" stroke-width="7"/>
<path d="M875.705 881.666C1030.32 799.599 1152.47 697.243 1225.04 598.24C1297.79 498.993 1319.98 404.234 1277.44 336.501C1234.91 268.769 1134.55 239.06 1004.68 247.355C875.14 255.63 717.644 301.709 563.03 383.776C408.416 465.842 286.262 568.198 213.694 667.202C140.949 766.448 118.754 861.208 161.29 928.94C203.826 996.672 304.187 1026.38 434.05 1018.09C563.595 1009.81 721.091 963.732 875.705 881.666Z" stroke="#F200FF" stroke-width="7"/>
<path d="M875.705 383.777C721.091 301.71 563.595 255.631 434.05 247.356C304.187 239.061 203.826 268.77 161.29 336.502C118.754 404.234 140.949 498.994 213.695 598.24C286.262 697.244 408.417 799.6 563.03 881.666C717.644 963.733 875.14 1009.81 1004.69 1018.09C1134.55 1026.38 1234.91 996.673 1277.44 928.941C1319.98 861.208 1297.79 766.449 1225.04 667.202C1152.47 568.199 1030.32 465.843 875.705 383.777Z" stroke="#F200FF" stroke-width="7"/>
</g>
</g>
<defs>
<filter id="filter0_f_135_286" x="113.777" y="14.6" width="1212.45" height="1266.22" filterUnits="userSpaceOnUse" color-interpolation-filters="sRGB">
<feFlood flood-opacity="0" result="BackgroundImageFix"/>
<feBlend mode="normal" in="SourceGraphic" in2="BackgroundImageFix" result="shape"/>
<feGaussianBlur stdDeviation="11.2" result="effect1_foregroundBlur_135_286"/>
</filter>
<filter id="filter1_f_135_286" x="99.6768" y="0.5" width="1239.38" height="1264.44" filterUnits="userSpaceOnUse" color-interpolation-filters="sRGB">
<feFlood flood-opacity="0" result="BackgroundImageFix"/>
<feBlend mode="normal" in="SourceGraphic" in2="BackgroundImageFix" result="shape"/>
<feGaussianBlur stdDeviation="18.25" result="effect1_foregroundBlur_135_286"/>
</filter>
</defs>
</svg>
