<svg width="1241" height="349" viewBox="0 0 1241 349" fill="none" xmlns="http://www.w3.org/2000/svg">
<path d="M10 348C8.13986 331.485 12.0014 303.593 40.0629 310.138C75.1399 318.32 85.9021 325.592 95.8671 327.865C105.832 330.138 149.28 341.046 169.608 341.501C189.937 341.955 225.811 344.683 217.441 311.502C209.07 278.32 181.965 223.322 213.056 223.322C244.147 223.322 273.245 226.049 288.79 224.685C304.336 223.322 403.189 215.595 458.196 136.051C513.203 56.5072 488.489 70.1432 514 1.50836M7.5 346C5.24126 325.849 10.3273 293.593 46.042 303.774C90.6853 316.501 117.392 320.592 128.951 322.41C140.51 324.229 220.629 335.137 221.427 303.774C222.224 272.412 198.308 222.413 223.42 215.595C248.531 208.777 288.392 219.685 331.042 207.867C373.692 196.05 439.462 157.414 462.979 121.506C486.496 85.5974 490.881 79.2339 493.671 66.5069C496.462 53.7799 505.267 3.3265 510.05 1.50836M5.5 344C2.17832 320.213 6.1818 283.32 47.6363 296.047C99.4545 311.956 141.308 310.138 160.042 310.138C178.776 310.138 229 313.32 226.21 271.048C223.42 228.776 221.028 216.958 235.776 207.867C250.524 198.777 282.413 205.595 307.923 201.049C333.434 196.504 394.42 187.236 437.07 141.505C479.72 95.7742 488.888 69.2342 493.671 49.2346C498.455 29.235 504.035 5.14464 506.427 1.50836M3 341C1.40559 320.243 3.31188 288.775 23.7203 286.957C49.2308 284.684 58.3986 293.775 70.7552 296.047C83.1119 298.32 146.091 297.411 156.455 296.047C166.818 294.684 225.014 293.775 229.797 266.503C234.58 239.23 233.783 206.049 250.524 198.322C267.266 190.595 328.252 190.595 350.573 182.868C372.895 175.141 414.971 159.687 448.629 120.142C482.288 80.5975 489.685 54.689 491.678 42.8711C493.273 33.4168 500.049 11.3566 503.238 1.50836M0.5 326C0.5 310.979 3.94965 282.411 25.3147 278.775C52.021 274.23 59.1958 294.684 98.2587 289.229C137.322 283.775 225.014 278.943 235.776 246.048C246.538 213.154 252.916 190.141 270.853 186.504C288.79 182.868 353.364 177.414 380.469 162.414C407.573 147.414 469.755 104.688 485.699 49.2346C498.455 4.87192 500.315 -1.06734 499.65 1.50836M0.5 297.5C3.02448 287.803 12.4797 268.684 28.1049 270.139C47.6363 271.957 73.1469 288.32 101.049 281.502C128.951 274.684 223.021 264.23 246.937 221.958C270.853 179.686 288.392 176.05 301.545 173.777C314.699 171.505 393.224 153.323 416.741 132.415C440.259 111.506 472.147 77.4158 480.916 49.2346C487.931 26.6896 493.671 8.02337 495.664 1.50836M1 281.502C5.51748 272.866 19.1762 257.048 37.6713 262.866C60.7902 270.139 73.1469 283.32 101.049 274.23C128.951 265.139 180.371 246.048 190.336 242.412C200.301 238.776 237.371 229.231 255.706 206.049C274.042 182.868 291.182 168.777 325.462 162.414C359.741 156.05 407.175 130.142 414.35 124.687C421.524 119.233 462.58 81.9611 472.147 57.8708C479.8 38.5985 488.357 12.2657 491.678 1.50836M1 271.048C4.72028 263.624 17.2629 250.048 37.6713 255.139C63.1818 261.503 76.3357 277.411 102.643 267.412C128.951 257.412 192.329 223.776 202.692 220.594C213.056 217.413 241.755 208.322 269.259 189.232C296.762 170.141 306.727 162.868 339.811 151.505C372.895 140.142 397.608 129.233 413.154 116.96C428.699 104.688 457.797 78.3249 467.364 56.5072C475.017 39.053 484.105 12.5687 487.692 1.50836M1 260.139C6.31468 253.018 21.3287 240.412 38.8671 246.958C60.7902 255.139 80.7203 266.957 94.6713 262.866C108.622 258.775 133.734 248.321 152.867 235.14C172 221.958 193.524 204.686 226.21 196.959C258.895 189.232 307.524 161.959 313.105 159.232C318.685 156.505 392.427 126.96 416.741 106.052C441.056 85.1429 451.419 73.325 458.196 61.9616C464.972 50.5982 483.308 7.41732 483.706 1.50836M1 249.685C7.11189 243.321 23.4811 232.231 40.0629 238.776C60.7902 246.958 75.9371 257.866 85.9021 257.412C95.8671 256.957 121.378 249.685 140.112 235.14C158.846 220.594 196.315 184.686 223.42 180.141C250.525 175.595 302.741 158.323 307.923 156.505C313.105 154.687 363.329 136.051 383.259 118.324C403.189 100.597 441.853 60.598 450.622 45.1438C457.638 32.7804 466.545 10.4476 470 1.50836M1 240.14C6.44755 234.231 21.8867 224.049 40.0629 230.594C62.7832 238.776 81.5175 257.412 103.441 248.776C125.364 240.14 156.853 215.14 165.224 206.049C173.594 196.959 190.734 168.323 227.804 162.414C264.874 156.505 320.678 148.323 350.573 137.414C380.469 126.506 428.301 82.8702 434.678 74.6886C441.056 66.5069 457.797 43.3256 462.58 32.8713C466.407 24.5079 471.881 8.4779 474.14 1.50836M1 230.594C7.51049 226.2 24.4378 218.413 40.0629 222.413C59.5944 227.413 81.9161 255.139 113.406 238.776C144.895 222.413 164.825 198.322 172.399 187.868C179.972 177.414 193.524 148.323 232.189 144.687C270.853 141.051 320.678 139.687 342.203 133.778C363.727 127.869 393.224 118.324 412.357 101.961C431.49 85.5974 455.406 62.4161 466.168 35.144C474.778 13.3263 478.524 3.62952 479.322 1.50836" stroke="#00FFC8"/>
<path d="M1229.5 348C1231.36 331.485 1229 303.593 1200.94 310.138C1165.86 318.32 1155.1 325.592 1145.13 327.865C1135.17 330.138 1091.72 341.046 1071.39 341.501C1051.06 341.955 1015.19 344.683 1023.56 311.502C1031.93 278.32 1059.03 223.322 1027.94 223.322C996.853 223.322 967.755 226.049 952.21 224.685C936.664 223.322 837.811 215.595 782.804 136.051C727.797 56.5072 752.511 70.1432 727 1.50836M1233 345C1235.26 324.849 1230.67 293.593 1194.96 303.774C1150.31 316.501 1123.61 320.592 1112.05 322.41C1100.49 324.229 1020.37 335.137 1019.57 303.774C1018.78 272.412 1042.69 222.413 1017.58 215.595C992.469 208.777 952.608 219.685 909.958 207.867C867.308 196.05 801.538 157.414 778.021 121.506C754.504 85.5974 750.119 79.2339 747.329 66.5069C744.538 53.7799 735.733 3.3265 730.95 1.50836M1235.5 343C1238.82 319.213 1234.82 283.32 1193.36 296.047C1141.55 311.956 1099.69 310.138 1080.96 310.138C1062.22 310.138 1012 313.32 1014.79 271.048C1017.58 228.776 1019.97 216.958 1005.22 207.867C990.476 198.777 958.587 205.595 933.077 201.049C907.566 196.504 846.58 187.236 803.93 141.505C761.28 95.7742 752.112 69.2342 747.329 49.2346C742.545 29.235 736.965 5.14464 734.573 1.50836M1238 339C1239.59 318.243 1237.69 288.775 1217.28 286.957C1191.77 284.684 1182.6 293.775 1170.24 296.047C1157.89 298.32 1094.91 297.411 1084.55 296.047C1074.18 294.684 1015.99 293.775 1011.2 266.503C1006.42 239.23 1007.22 206.049 990.476 198.322C973.734 190.595 912.748 190.595 890.427 182.868C868.105 175.141 826.029 159.687 792.371 120.142C758.712 80.5975 751.315 54.689 749.322 42.8711C747.727 33.4168 740.951 11.3566 737.762 1.50836M1239.5 325.5C1239.5 310.479 1237.05 282.411 1215.69 278.775C1188.98 274.23 1181.8 294.684 1142.74 289.229C1103.68 283.775 1015.99 278.943 1005.22 246.048C994.462 213.154 988.084 190.141 970.147 186.504C952.21 182.868 887.636 177.414 860.531 162.414C833.427 147.414 771.245 104.688 755.301 49.2346C742.545 4.87192 740.685 -1.06734 741.35 1.50836M1240 297.411C1237.48 287.714 1228.52 268.684 1212.9 270.139C1193.36 271.957 1167.85 288.32 1139.95 281.502C1112.05 274.684 1017.98 264.23 994.063 221.958C970.147 179.686 952.608 176.05 939.455 173.777C926.301 171.505 847.776 153.323 824.259 132.415C800.741 111.506 768.853 77.4158 760.084 49.2346C753.069 26.6896 747.329 8.02337 745.336 1.50836M1240 281.502C1235.48 272.866 1221.82 257.048 1203.33 262.866C1180.21 270.139 1167.85 283.32 1139.95 274.23C1112.05 265.139 1060.63 246.048 1050.66 242.412C1040.7 238.776 1003.63 229.231 985.294 206.049C966.958 182.868 949.818 168.777 915.538 162.414C881.259 156.05 833.825 130.142 826.65 124.687C819.476 119.233 778.42 81.9611 768.853 57.8708C761.2 38.5985 752.643 12.2657 749.322 1.50836M1240 271.048C1236.28 263.624 1223.74 250.048 1203.33 255.139C1177.82 261.503 1164.66 277.411 1138.36 267.412C1112.05 257.412 1048.67 223.776 1038.31 220.594C1027.94 217.413 999.245 208.322 971.741 189.232C944.238 170.141 934.273 162.868 901.189 151.505C868.105 140.142 843.392 129.233 827.846 116.96C812.301 104.688 783.203 78.3249 773.636 56.5072C765.983 39.053 756.895 12.5687 753.308 1.50836M1240 260.139C1234.69 253.018 1219.67 240.412 1202.13 246.958C1180.21 255.139 1160.28 266.957 1146.33 262.866C1132.38 258.775 1107.27 248.321 1088.13 235.14C1069 221.958 1047.48 204.686 1014.79 196.959C982.105 189.232 933.476 161.959 927.895 159.232C922.315 156.505 848.573 126.96 824.259 106.052C799.944 85.1429 789.581 73.325 782.804 61.9616C776.028 50.5982 757.692 7.41732 757.294 1.50836M1240 249.685C1233.89 243.321 1217.52 232.231 1200.94 238.776C1180.21 246.958 1165.06 257.866 1155.1 257.412C1145.13 256.957 1119.62 249.685 1100.89 235.14C1082.15 220.594 1044.69 184.686 1017.58 180.141C990.475 175.595 938.259 158.323 933.077 156.505C927.895 154.687 877.671 136.051 857.741 118.324C837.811 100.597 799.147 60.598 790.378 45.1438C783.362 32.7804 774.455 10.4476 771 1.50836M1240 240.14C1234.55 234.231 1219.11 224.049 1200.94 230.594C1178.22 238.776 1159.48 257.412 1137.56 248.776C1115.64 240.14 1084.15 215.14 1075.78 206.049C1067.41 196.959 1050.27 168.323 1013.2 162.414C976.126 156.505 920.322 148.323 890.427 137.414C860.531 126.506 812.699 82.8702 806.322 74.6886C799.944 66.5069 783.203 43.3256 778.42 32.8713C774.593 24.5079 769.119 8.4779 766.86 1.50836M1240 230.594C1233.49 226.2 1216.56 218.413 1200.94 222.413C1181.41 227.413 1159.08 255.139 1127.59 238.776C1096.1 222.413 1076.17 198.322 1068.6 187.868C1061.03 177.414 1047.48 148.323 1008.81 144.687C970.147 141.051 920.322 139.687 898.797 133.778C877.273 127.869 847.776 118.324 828.643 101.961C809.51 85.5974 785.594 62.4161 774.832 35.144C766.222 13.3263 762.476 3.62952 761.678 1.50836" stroke="#70F1D5"/>
</svg>
