<svg width="358" height="347" viewBox="0 0 358 347" fill="none" xmlns="http://www.w3.org/2000/svg">
<path d="M253.92 180.435C253.92 142.793 245.383 108.739 231.606 84.1138C217.819 59.472 198.853 44.371 178.017 44.371C157.181 44.371 138.215 59.472 124.428 84.1138C110.651 108.739 102.114 142.793 102.114 180.435C102.114 218.077 110.651 252.13 124.428 276.756C138.215 301.398 157.181 316.499 178.017 316.499C198.853 316.499 217.819 301.398 231.606 276.756C245.383 252.13 253.92 218.077 253.92 180.435Z" stroke="#F200FF"/>
<path d="M215.994 237.778C253.37 218.957 282.913 195.473 300.472 172.74C318.06 149.97 323.512 128.116 313.133 112.435C302.753 96.755 278.328 89.9466 246.925 91.8463C215.574 93.7428 177.485 104.317 140.109 123.138C102.733 141.959 73.19 165.443 55.6311 188.176C38.0437 210.946 32.5911 232.8 42.9706 248.481C53.3501 264.161 77.7755 270.97 109.178 269.07C140.529 267.173 178.618 256.6 215.994 237.778Z" stroke="#F200FF"/>
<path d="M215.943 123.104C178.571 104.273 140.489 93.692 109.144 91.7912C77.7476 89.8873 53.3284 96.6947 42.9535 112.378C32.5785 128.062 38.0334 149.922 55.6207 172.7C73.1794 195.442 102.72 218.935 140.091 237.766C177.462 256.597 215.545 267.178 246.89 269.079C278.286 270.983 302.705 264.175 313.08 248.492C323.455 232.808 318 210.948 300.413 188.17C282.854 165.428 253.314 141.935 215.943 123.104Z" stroke="#F200FF"/>
<g filter="url(#filter0_f_407_2)">
<path d="M252.42 173.564C252.42 136.341 243.911 102.815 230.331 78.7168C216.691 54.5105 198.393 40.4999 178.966 40.4999C159.538 40.4999 141.24 54.5105 127.6 78.7168C114.02 102.815 105.511 136.341 105.511 173.564C105.511 210.787 114.02 244.313 127.6 268.411C141.24 292.617 159.538 306.628 178.966 306.628C198.393 306.628 216.691 292.617 230.331 268.411C243.911 244.313 252.42 210.787 252.42 173.564Z" stroke="#F200FF" stroke-width="7"/>
<path d="M215.553 228.412C252.906 209.737 282.298 186.496 299.681 164.152C317.266 141.547 321.776 121.005 312.375 106.905C302.975 92.8047 280.175 85.9156 248.776 87.8014C217.739 89.6655 179.801 100.087 142.447 118.762C105.094 137.437 75.7022 160.678 58.3195 183.022C40.7342 205.627 36.2241 226.169 45.6248 240.269C55.0255 254.369 77.825 261.258 109.224 259.373C140.261 257.509 178.199 247.087 215.553 228.412Z" stroke="#F200FF" stroke-width="7"/>
<path d="M215.502 118.729C178.154 100.044 140.221 89.6152 109.19 87.747C77.7977 85.8569 55.004 92.7453 45.6074 106.848C36.2109 120.951 40.7232 141.5 58.3085 164.112C75.691 186.464 105.08 209.715 142.429 228.399C179.777 247.084 217.71 257.513 248.741 259.381C280.133 261.271 302.927 254.382 312.323 240.28C321.72 226.177 317.208 205.628 299.622 183.016C282.24 160.664 252.85 137.413 215.502 118.729Z" stroke="#F200FF" stroke-width="7"/>
</g>
<path d="M145.277 260.674L149.245 259.766M157.543 257.866L158.41 262.975M157.543 257.866L149.245 259.766M157.543 257.866C158.708 258.105 161.075 258.802 161.224 259.677C161.372 260.553 159.41 262.241 158.41 262.975M158.41 262.975L150.112 264.874M146.504 265.7L147.123 269.349C147.965 269.157 149.741 267.992 150.112 264.874M146.504 265.7L150.112 264.874M146.504 265.7L146.38 264.97M149.245 259.766C148.75 256.847 146.221 256.667 145.018 256.943L145.761 261.321M145.761 261.321L143.236 261.899L143.855 265.548L146.38 264.97M145.761 261.321L146.38 264.97M142.175 266.691L140.01 267.187M140.808 264.161L138.283 264.739M141.308 261.583L138.782 262.161" stroke="white"/>
<path d="M156.209 262.176C155.698 262.941 154.73 263.133 154.063 262.688C153.396 262.242 153.203 261.275 153.714 260.51C154.225 259.744 155.193 259.553 155.86 259.998C156.527 260.443 156.72 261.411 156.209 262.176Z" stroke="white"/>
<path d="M168 193.02L143.36 207L119 193.395V165.984L143.36 153L168 166.98" stroke="#F200FF" stroke-width="2" stroke-linecap="round"/>
<path d="M170 164.771L143.278 150L116 164.771V195.408L143.278 211L170 195.408" stroke="#F200FF" stroke-width="3" stroke-linecap="round"/>
<path d="M138.96 180.331L141.992 177.255M148.33 170.823L152.188 174.738M148.33 170.823L141.992 177.255M148.33 170.823C149.525 170.357 152.078 169.593 152.74 170.264C153.401 170.935 152.648 173.527 152.188 174.738M152.188 174.738L145.85 181.17M143.094 183.967L145.85 186.763C146.493 186.11 147.393 184.078 145.85 181.17M143.094 183.967L145.85 181.17M143.094 183.967L142.543 183.407M141.992 177.255C139.787 175.018 137.399 176.323 136.48 177.255L139.787 180.611M139.787 180.611L137.858 182.568L140.614 185.365L142.543 183.407M139.787 180.611L142.543 183.407M139.787 187.322L138.134 189M137.031 185.924L135.102 187.881M135.929 183.407L134 185.365" stroke="#F200FF" stroke-width="2"/>
<path d="M193.283 191H191.127V174.016L187.518 184.531H185.987L182.393 174.016V191H180.252V170.609H183.033L186.752 181.266L190.502 170.609H193.283V191ZM211.83 172.438H210.174L205.315 182.203V189.172H208.596V191H199.862V189.172H203.158V182.203L198.299 172.438H196.643V170.609H202.393V172.438H200.705L204.252 180.125L207.768 172.438H206.08V170.609H211.83V172.438ZM228.987 177.5H227.158V172.438H222.783V189.172H226.065V191H217.33V189.172H220.627V172.438H216.252V177.5H214.424V170.609H228.987V177.5Z" fill="white"/>
<defs>
<filter id="filter0_f_407_2" x="0.621155" y="0.5" width="356.745" height="346.128" filterUnits="userSpaceOnUse" color-interpolation-filters="sRGB">
<feFlood flood-opacity="0" result="BackgroundImageFix"/>
<feBlend mode="normal" in="SourceGraphic" in2="BackgroundImageFix" result="shape"/>
<feGaussianBlur stdDeviation="18.25" result="effect1_foregroundBlur_407_2"/>
</filter>
</defs>
</svg>
