<svg width="40" height="40" viewBox="0 0 40 40" fill="none" xmlns="http://www.w3.org/2000/svg">
<circle cx="20" cy="20" r="19.75" fill="black" stroke="white" stroke-width="0.5"/>
<path d="M32.202 27.3708C31.2813 29.0394 29.1191 29.8223 26.2552 29.6424C23.4061 29.4635 19.9386 28.3313 16.5368 26.2764C13.135 24.2214 10.4641 21.6456 8.89143 19.1535C7.31063 16.6485 6.87753 14.298 7.7983 12.6293C8.71907 10.9607 10.8812 10.1779 13.7451 10.3577C16.5942 10.5366 20.0617 11.6688 23.4635 13.7238C26.8654 15.7787 29.5363 18.3545 31.1089 20.8466C32.6897 23.3516 33.1228 25.7022 32.202 27.3708Z" stroke="#FF00DD" stroke-width="0.5"/>
<path d="M32.2019 12.6293C33.1226 14.298 32.6895 16.6485 31.1087 19.1535C29.5361 21.6456 26.8652 24.2214 23.4634 26.2764C20.0615 28.3313 16.594 29.4635 13.7449 29.6424C10.8811 29.8223 8.71891 29.0394 7.79814 27.3708C6.87736 25.7022 7.31047 23.3516 8.89127 20.8466C10.4639 18.3545 13.1348 15.7787 16.5366 13.7238C19.9385 11.6688 23.406 10.5366 26.2551 10.3577C29.1189 10.1779 31.2811 10.9607 32.2019 12.6293Z" stroke="#FF00DD" stroke-width="0.5"/>
<path d="M19.9998 5.25C21.8276 5.25 23.5564 6.80889 24.843 9.50119C26.1209 12.1751 26.9181 15.8867 26.9181 20C26.9181 24.1133 26.1209 27.8249 24.843 30.4988C23.5564 33.1911 21.8276 34.75 19.9998 34.75C18.172 34.75 16.4433 33.1911 15.1567 30.4988C13.8788 27.8249 13.0815 24.1133 13.0815 20C13.0815 15.8867 13.8788 12.1751 15.1567 9.50119C16.4433 6.80889 18.172 5.25 19.9998 5.25Z" stroke="#FF00DD" stroke-width="0.5"/>
<g filter="url(#filter0_f_212_194)">
<path d="M31.774 27.1123C30.9912 28.531 29.0761 29.3108 26.2754 29.135C23.519 28.9619 20.1268 27.8613 16.7784 25.8386C13.4299 23.8159 10.8228 21.2925 9.30137 18.8815C7.75544 16.4317 7.44343 14.3065 8.22627 12.8879C9.00912 11.4692 10.9242 10.6893 13.7249 10.8652C16.4813 11.0383 19.8735 12.1389 23.222 14.1615C26.5704 16.1842 29.1775 18.7076 30.6989 21.1186C32.2449 23.5684 32.5569 25.6936 31.774 27.1123Z" stroke="#FF00DD" stroke-width="1.5"/>
<path d="M31.7739 12.8879C32.5567 14.3065 32.2447 16.4317 30.6988 18.8815C29.1773 21.2925 26.5702 23.8159 23.2218 25.8386C19.8733 27.8613 16.4811 28.9619 13.7247 29.135C10.924 29.3108 9.00896 28.531 8.22611 27.1123C7.44327 25.6936 7.75528 23.5684 9.30121 21.1186C10.8227 18.7076 13.4298 16.1842 16.7782 14.1615C20.1267 12.1389 23.5189 11.0383 26.2753 10.8652C29.076 10.6893 30.991 11.4692 31.7739 12.8879Z" stroke="#FF00DD" stroke-width="1.5"/>
<path d="M19.9998 5.75C21.5243 5.75 23.1264 7.06879 24.3919 9.71678C25.631 12.3097 26.4181 15.9445 26.4181 20C26.4181 24.0555 25.631 27.6903 24.3919 30.2832C23.1265 32.9312 21.5243 34.25 19.9998 34.25C18.4754 34.25 16.8732 32.9312 15.6078 30.2832C14.3687 27.6903 13.5815 24.0555 13.5815 20C13.5815 15.9445 14.3687 12.3097 15.6078 9.71678C16.8732 7.06879 18.4754 5.75 19.9998 5.75Z" stroke="#FF00DD" stroke-width="1.5"/>
</g>
<defs>
<filter id="filter0_f_212_194" x="3.67373" y="1.6" width="32.6525" height="36.8" filterUnits="userSpaceOnUse" color-interpolation-filters="sRGB">
<feFlood flood-opacity="0" result="BackgroundImageFix"/>
<feBlend mode="normal" in="SourceGraphic" in2="BackgroundImageFix" result="shape"/>
<feGaussianBlur stdDeviation="1.7" result="effect1_foregroundBlur_212_194"/>
</filter>
</defs>
</svg>
