<svg width="256" height="199" viewBox="0 0 256 199" fill="none" xmlns="http://www.w3.org/2000/svg">
<path d="M46.5399 198.011V184.84C46.5399 179.79 43.4659 176.498 38.1969 176.498C35.5629 176.498 32.7089 177.376 30.7329 180.23C29.1969 177.815 27.0019 176.498 23.7089 176.498C21.5129 176.498 19.3189 177.156 17.5619 179.571V176.937H12.9519V198.011H17.5619V186.376C17.5619 182.645 19.5379 180.888 22.6119 180.888C25.6839 180.888 27.2219 182.864 27.2219 186.376V198.011H31.8319V186.376C31.8319 182.645 34.0259 180.888 36.8799 180.888C39.9539 180.888 41.4899 182.864 41.4899 186.376V198.011H46.5399ZM114.811 176.937H107.348V170.571H102.738V176.937H98.5669V181.107H102.737V190.767C102.737 195.597 104.713 198.45 109.982 198.45C111.958 198.45 114.152 197.792 115.69 196.914L114.372 192.962C113.055 193.84 111.519 194.06 110.421 194.06C108.226 194.06 107.348 192.743 107.348 190.547V181.107H114.811V176.937ZM153.887 176.497C151.253 176.497 149.497 177.815 148.399 179.571V176.937H143.789V198.011H148.399V186.157C148.399 182.645 149.935 180.669 152.789 180.669C153.667 180.669 154.765 180.889 155.643 181.108L156.96 176.718C156.082 176.498 154.765 176.498 153.887 176.498M94.8349 178.694C92.6389 177.157 89.5659 176.499 86.2729 176.499C81.0049 176.499 77.4929 179.133 77.4929 183.304C77.4929 186.817 80.1269 188.792 84.7369 189.451L86.9319 189.671C89.3469 190.109 90.6639 190.768 90.6639 191.866C90.6639 193.402 88.9079 194.5 85.8339 194.5C82.7599 194.5 80.3459 193.402 78.8089 192.305L76.6139 195.817C79.0289 197.573 82.3219 198.451 85.6139 198.451C91.7609 198.451 95.2739 195.598 95.2739 191.646C95.2739 187.914 92.4199 185.938 88.0289 185.28L85.8339 185.06C83.8579 184.84 82.3219 184.402 82.3219 183.085C82.3219 181.548 83.8579 180.67 86.2729 180.67C88.9079 180.67 91.5419 181.767 92.8589 182.426L94.8349 178.694ZM217.33 176.499C214.695 176.499 212.939 177.816 211.841 179.572V176.938H207.231V198.012H211.841V186.158C211.841 182.646 213.378 180.67 216.231 180.67C217.11 180.67 218.208 180.89 219.086 181.109L220.403 176.719C219.525 176.499 218.208 176.499 217.33 176.499ZM158.497 187.475C158.497 193.841 162.887 198.451 169.693 198.451C172.766 198.451 174.961 197.793 177.156 196.037L174.961 192.305C173.205 193.622 171.449 194.28 169.473 194.28C165.741 194.28 163.107 191.646 163.107 187.475C163.107 183.524 165.741 180.889 169.473 180.67C171.449 180.67 173.205 181.328 174.961 182.646L177.156 178.914C174.961 177.157 172.766 176.499 169.693 176.499C162.887 176.499 158.497 181.109 158.497 187.475ZM201.085 187.475V176.938H196.475V179.572C194.938 177.597 192.743 176.499 189.889 176.499C183.962 176.499 179.352 181.109 179.352 187.475C179.352 193.841 183.962 198.451 189.889 198.451C192.962 198.451 195.158 197.354 196.475 195.378V198.012H201.085V187.475ZM184.181 187.475C184.181 183.743 186.596 180.67 190.547 180.67C194.279 180.67 196.914 183.524 196.914 187.475C196.914 191.207 194.279 194.28 190.547 194.28C186.596 194.06 184.181 191.207 184.181 187.475ZM129.081 176.499C122.934 176.499 118.543 180.889 118.543 187.475C118.543 194.061 122.933 198.451 129.3 198.451C132.373 198.451 135.447 197.573 137.862 195.598L135.666 192.305C133.91 193.622 131.715 194.5 129.52 194.5C126.666 194.5 123.812 193.183 123.153 189.45H138.74V187.695C138.96 180.889 135.009 176.499 129.081 176.499ZM129.08 180.45C131.933 180.45 133.91 182.207 134.348 185.5H123.372C123.811 182.646 125.787 180.45 129.08 180.45ZM243.452 187.475V168.596H238.842V179.572C237.305 177.597 235.11 176.499 232.256 176.499C226.329 176.499 221.719 181.109 221.719 187.475C221.719 193.841 226.329 198.451 232.256 198.451C235.33 198.451 237.525 197.354 238.842 195.378V198.012H243.452V187.475ZM226.549 187.475C226.549 183.743 228.963 180.67 232.915 180.67C236.647 180.67 239.281 183.524 239.281 187.475C239.281 191.207 236.647 194.28 232.915 194.28C228.963 194.06 226.549 191.207 226.549 187.475ZM72.4419 187.475V176.938H67.8319V179.572C66.2949 177.597 64.0999 176.499 61.2459 176.499C55.3189 176.499 50.7089 181.109 50.7089 187.475C50.7089 193.841 55.3189 198.451 61.2459 198.451C64.3199 198.451 66.5149 197.354 67.8319 195.378V198.012H72.4419V187.475ZM55.3189 187.475C55.3189 183.743 57.7339 180.67 61.6849 180.67C65.4169 180.67 68.0519 183.524 68.0519 187.475C68.0519 191.207 65.4169 194.28 61.6849 194.28C57.7339 194.06 55.3189 191.207 55.3189 187.475Z" fill="black"/>
<path d="M93.2981 16.9031H162.448V141.154H93.2981V16.9031Z" fill="#FF5F00"/>
<path d="M97.689 79.029C97.689 53.784 109.543 31.392 127.763 16.903C114.373 6.366 97.47 0 79.03 0C35.343 0 0 35.343 0 79.029C0 122.715 35.343 158.058 79.029 158.058C97.469 158.058 114.372 151.692 127.763 141.154C109.543 126.885 97.689 104.274 97.689 79.029Z" fill="#EB001B"/>
<path d="M255.746 79.029C255.746 122.714 220.403 158.058 176.717 158.058C158.277 158.058 141.374 151.692 127.983 141.154C146.423 126.666 158.058 104.274 158.058 79.029C158.058 53.784 146.203 31.392 127.983 16.903C141.373 6.366 158.277 0 176.717 0C220.403 0 255.746 35.563 255.746 79.029Z" fill="#F79E1B"/>
</svg>
