<svg width="306" height="192" viewBox="0 0 306 192" fill="none" xmlns="http://www.w3.org/2000/svg">
<path d="M59.9258 0H136.301C146.963 0 153.593 8.69038 151.107 19.3878L115.548 172.053C113.039 182.714 102.363 191.411 91.6959 191.411H15.3267C4.68074 191.411 -1.96548 182.714 0.521765 172.053L36.0952 19.3878C38.5825 8.69038 49.2511 0 59.9258 0Z" fill="#E21836"/>
<path d="M129.947 0H217.777C228.436 0 223.631 8.69038 221.123 19.3878L185.569 172.053C183.076 182.714 183.853 191.411 173.171 191.411H85.3416C74.6597 191.411 68.0494 182.714 70.5582 172.053L106.109 19.3878C108.633 8.69038 119.28 0 129.947 0Z" fill="#00447C"/>
<path d="M214.294 0H290.669C301.346 0 307.977 8.69038 305.471 19.3878L269.916 172.053C267.407 182.714 256.726 191.411 246.05 191.411H169.71C159.029 191.411 152.403 182.714 154.905 172.053L190.463 19.3878C192.951 8.69038 203.612 0 214.294 0Z" fill="#007B84"/>
<path d="M79.8731 48.9256C72.0198 49.0058 69.7002 48.9256 68.959 48.7507C68.6739 50.1039 63.3737 74.5524 63.3594 74.5728C62.2181 79.5185 61.3882 83.0452 58.5669 85.3217C56.967 86.645 55.0977 87.2844 52.9302 87.2844C49.4478 87.2844 47.418 85.554 47.0779 82.274L47.0121 81.1484C47.0121 81.1484 48.0731 74.5225 48.0731 74.4854C48.0731 74.4854 53.6355 52.2056 54.6319 49.2609C54.6845 49.0932 54.6989 49.0058 54.7121 48.9256C43.8853 49.0214 41.9657 48.9256 41.834 48.7507C41.7609 48.9902 41.4927 50.3722 41.4927 50.3722L35.8129 75.4841L35.3255 77.6133L34.3818 84.5792C34.3818 86.645 34.7878 88.3323 35.5949 89.7585C38.1828 94.2803 45.5643 94.9581 49.74 94.9581C55.1192 94.9581 60.1668 93.8145 63.5773 91.7272C69.4966 88.2305 71.0462 82.7626 72.427 77.9031L73.0676 75.4111C73.0676 75.4111 78.7978 52.2714 79.7713 49.2609C79.8073 49.0932 79.8228 49.0058 79.8731 48.9256ZM99.3687 67.5925C97.988 67.5925 95.4648 67.9278 93.1967 69.0391C92.374 69.4618 91.5956 69.9492 90.7741 70.4354L91.5154 67.7601L91.1094 67.3099C86.3014 68.2834 85.2248 68.414 80.7832 69.0391L80.412 69.287C79.8959 73.5621 79.4372 76.7774 77.526 85.1828C76.7937 88.2919 76.0464 91.3975 75.2842 94.4995L75.4878 94.8911C80.0408 94.6516 81.4215 94.6516 85.3781 94.7162L85.6978 94.369C86.2008 91.7943 86.2655 91.1907 87.3792 85.9756C87.9025 83.5039 88.9934 78.0719 89.5311 76.138C90.5191 75.6793 91.495 75.229 92.4255 75.229C94.6433 75.229 94.3727 77.163 94.2876 77.9342C94.1918 79.2275 93.3847 83.4536 92.556 87.0821L92.0028 89.4232C91.6184 91.1536 91.1957 92.8337 90.8101 94.5486L90.9777 94.8911C95.4636 94.6516 96.8324 94.6516 100.663 94.7162L101.113 94.369C101.807 90.3477 102.009 89.2711 103.238 83.4165L103.856 80.7268C105.057 75.4614 105.66 72.7921 104.752 70.6174C103.791 68.1805 101.485 67.5925 99.3687 67.5925ZM121.15 73.1046C118.765 73.5633 117.244 73.8675 115.733 74.065C114.235 74.3046 112.773 74.5237 110.469 74.8434L110.285 75.0087L110.118 75.1404C109.878 76.8577 109.71 78.3414 109.392 80.0862C109.122 81.8896 108.707 83.9398 108.032 86.8845C107.508 89.1382 107.239 89.9238 106.941 90.7165C106.65 91.5105 106.33 92.2817 105.742 94.4983L105.88 94.7031L105.995 94.8911C108.149 94.7893 109.558 94.7162 111.006 94.7031C112.453 94.6516 113.952 94.7031 116.27 94.715L116.474 94.551L116.692 94.3678C117.027 92.3679 117.076 91.8302 117.281 90.8554C117.485 89.8088 117.834 88.361 118.693 84.4918C119.099 82.6752 119.55 80.8634 119.972 79.0096C120.409 77.163 120.867 75.3452 121.302 73.5274L121.238 73.3082L121.15 73.1046ZM121.201 65.6728C119.033 64.3939 115.231 64.7999 112.671 66.5662C110.119 68.2978 109.828 70.7551 111.988 72.0508C114.117 73.2938 117.935 72.9238 120.473 71.1419C123.02 69.3732 123.338 66.9386 121.201 65.6728ZM134.305 95.2922C138.689 95.2922 143.183 94.0827 146.566 90.4986C149.169 87.591 150.363 83.2644 150.776 81.4825C152.121 75.5775 151.073 72.8208 149.758 71.1419C147.758 68.5816 144.224 67.7601 140.559 67.7601C138.355 67.7601 133.105 67.9781 129.004 71.7598C126.058 74.4866 124.697 78.1881 123.877 81.7351C123.048 85.3516 122.095 91.859 128.08 94.2815C129.927 95.0743 132.589 95.2922 134.305 95.2922ZM133.963 82.0058C134.973 77.5343 136.167 73.7812 139.213 73.7812C141.599 73.7812 141.773 76.5739 140.712 81.0598C140.521 82.0561 139.651 85.7588 138.472 87.3347C137.649 88.4987 136.676 89.2041 135.598 89.2041C135.279 89.2041 133.375 89.2041 133.345 86.3767C133.33 84.9804 133.615 83.5542 133.963 82.0058ZM161.734 94.7174L162.077 94.369C162.563 91.7943 162.643 91.1895 163.719 85.9768C164.257 83.5039 165.371 78.0731 165.893 76.138C166.884 75.6781 167.843 75.2278 168.803 75.2278C171.005 75.2278 170.737 77.1618 170.65 77.933C170.57 79.2287 169.761 83.4524 168.918 87.0809L168.395 89.422C167.995 91.1536 167.559 92.8325 167.173 94.5498L167.341 94.8923C171.844 94.6528 173.159 94.6528 177.012 94.7174L177.478 94.369C178.153 90.3453 178.337 89.2699 179.602 83.4165L180.205 80.7256C181.412 75.4602 182.023 72.7933 181.128 70.6186C180.14 68.1816 177.82 67.5937 175.733 67.5937C174.35 67.5937 171.814 67.9266 169.559 69.0403C168.753 69.4618 167.945 69.948 167.152 70.4366L167.843 67.7613L167.472 67.3087C162.665 68.2834 161.568 68.414 157.131 69.0403L156.79 69.287C156.252 73.5633 155.815 76.7762 153.904 85.184C153.171 88.2925 152.424 91.3977 151.663 94.4995L151.867 94.8923C156.426 94.6528 157.786 94.6528 161.734 94.7174ZM194.807 94.8911C195.09 93.5091 196.771 85.3229 196.786 85.3229C196.786 85.3229 198.217 79.315 198.305 79.097C198.305 79.097 198.755 78.4719 199.206 78.224H199.868C206.121 78.224 213.183 78.224 218.717 74.1525C222.483 71.3599 225.058 67.2368 226.206 62.2252C226.504 60.9965 226.723 59.5356 226.723 58.0746C226.723 56.155 226.339 54.2557 225.225 52.772C222.403 48.8238 216.783 48.7507 210.295 48.7208L207.097 48.7507C198.793 48.8537 195.462 48.8238 194.094 48.6561C193.979 49.2609 193.761 50.3374 193.761 50.3374C193.761 50.3374 190.786 64.1245 190.786 64.146L183.331 94.8408C190.582 94.7534 193.556 94.7534 194.807 94.8911ZM200.319 70.3994C200.319 70.3994 203.481 56.64 203.467 56.6927L203.57 55.9861L203.614 55.4496L204.878 55.579C204.878 55.579 211.401 56.1394 211.553 56.1538C214.128 57.1501 215.189 59.7176 214.449 63.0682C213.772 66.1315 211.787 68.7062 209.234 69.9492C207.132 71.003 204.557 71.0904 201.905 71.0904H200.189L200.319 70.3994ZM220.011 82.2609C219.176 85.8235 218.215 92.332 224.17 94.6516C226.07 95.4587 227.771 95.6994 229.499 95.612C231.327 95.5138 233.019 94.5977 234.586 93.2792L234.161 94.9066L234.432 95.2539C238.715 95.0743 240.045 95.0743 244.685 95.1102L245.107 94.7893C245.783 90.8051 246.423 86.9372 248.184 79.315C249.042 75.6649 249.898 72.0496 250.778 68.414L250.64 68.014C245.849 68.9014 244.569 69.0918 239.958 69.7444L239.609 70.0294C239.562 70.4006 239.513 70.7563 239.469 71.112C238.753 69.954 237.713 68.9648 236.111 68.3493C234.061 67.5422 229.247 68.5816 225.109 72.349C222.2 75.0398 220.804 78.7258 220.011 82.2609ZM230.075 82.4788C231.102 78.0863 232.279 74.3716 235.332 74.3716C237.263 74.3716 238.28 76.1523 238.072 79.1904C237.895 80.0118 237.712 80.8317 237.522 81.6501C237.216 82.9554 236.886 84.2487 236.564 85.5444C236.235 86.4306 235.853 87.2665 235.435 87.8233C234.65 88.937 232.781 89.6268 231.704 89.6268C231.399 89.6268 229.515 89.6268 229.45 86.8485C229.435 85.4666 229.72 84.0428 230.075 82.4788ZM282.63 67.9769L282.258 67.5541C277.517 68.5146 276.659 68.6678 272.303 69.2558L271.982 69.5756C271.968 69.6282 271.955 69.7073 271.932 69.7803L271.918 69.7085C268.675 77.1906 268.77 75.5763 266.13 81.4657C266.115 81.1975 266.115 81.031 266.1 80.746L265.439 67.9769L265.025 67.5541C260.058 68.5146 259.94 68.6678 255.354 69.2558L254.996 69.5756C254.945 69.7288 254.945 69.8965 254.915 70.0785L254.945 70.1444C255.519 73.0735 255.381 72.4197 255.956 77.0445C256.224 79.3138 256.582 81.5962 256.849 83.838C257.302 87.5886 257.556 89.4352 258.108 95.1605C255.011 100.272 254.277 102.207 251.294 106.693L251.316 106.737L249.215 110.059C248.976 110.408 248.758 110.648 248.452 110.751C248.117 110.916 247.681 110.946 247.077 110.946H245.912L244.183 116.699L250.117 116.801C253.599 116.786 255.788 115.158 256.967 112.969L260.698 106.575H260.638L261.031 106.125C263.541 100.723 282.63 67.9769 282.63 67.9769ZM220.011 143.526H217.494L226.811 112.714H229.9L230.882 109.54L230.976 113.069C230.861 115.251 232.577 117.185 237.086 116.866H242.301L244.095 110.933H242.133C241.005 110.933 240.481 110.648 240.546 110.037L240.452 106.446H230.796V106.465C227.674 106.53 218.35 106.764 216.463 107.267C214.18 107.854 211.772 109.587 211.772 109.587L212.719 106.409H203.686L201.803 112.714L192.363 143.996H190.531L188.735 149.887H206.725L206.123 151.851H214.987L215.576 149.887H218.062L220.011 143.526ZM212.63 118.974C211.183 119.374 208.492 120.589 208.492 120.589L210.886 112.714H218.062L216.331 118.451C216.331 118.451 214.114 118.583 212.631 118.974M212.769 130.224C212.769 130.224 210.515 130.508 209.031 130.842C207.57 131.285 204.829 132.681 204.829 132.681L207.302 124.487H214.515L212.769 130.224ZM208.748 143.598H201.549L203.637 136.682H210.812L208.748 143.598ZM226.084 124.487H236.46L234.97 129.316H224.455L222.877 134.595H232.078L225.11 144.404C224.623 145.125 224.186 145.38 223.7 145.582C223.212 145.83 222.572 146.121 221.832 146.121H219.279L217.525 151.902H224.2C227.671 151.902 229.721 150.324 231.233 148.252L236.011 141.714L237.037 148.353C237.254 149.596 238.148 150.324 238.753 150.607C239.421 150.942 240.112 151.517 241.088 151.603C242.133 151.647 242.889 151.683 243.392 151.683H246.673L248.642 145.212H247.348C246.606 145.212 245.326 145.087 245.109 144.855C244.89 144.571 244.89 144.137 244.774 143.473L243.732 136.82H239.471L241.34 134.595H251.834L253.448 129.316H243.733L245.246 124.487H254.932L256.728 118.531H227.852L226.084 124.487ZM138.444 144.943L140.865 136.886H150.82L152.638 130.893H142.675L144.195 125.934H153.931L155.736 120.131H131.375L129.608 125.934H135.143L133.667 130.892H128.118L126.278 136.987H131.811L128.582 147.648C128.147 149.058 128.787 149.596 129.193 150.252C129.608 150.891 130.029 151.313 130.975 151.553C131.951 151.771 132.619 151.901 133.527 151.901H144.749L146.748 145.262L141.774 145.946C140.814 145.946 138.153 145.831 138.444 144.943ZM139.585 106.373L137.063 110.932C136.524 111.927 136.037 112.546 135.6 112.83C135.214 113.069 134.45 113.171 133.345 113.171H132.029L130.269 119.003H134.64C136.743 119.003 138.356 118.233 139.127 117.847C139.956 117.404 140.174 117.657 140.814 117.039L142.29 115.76H155.939L157.751 109.689H147.759L149.504 106.372L139.585 106.373ZM159.736 145.06C159.503 144.725 159.671 144.134 160.027 142.906L163.757 130.558H177.029C178.963 130.53 180.358 130.508 181.268 130.443C182.243 130.34 183.304 129.991 184.46 129.366C185.653 128.711 186.264 128.02 186.779 127.228C187.354 126.437 188.278 124.704 189.071 122.035L193.761 106.409L179.989 106.489C179.989 106.489 175.748 107.114 173.881 107.806C171.997 108.576 169.305 110.728 169.305 110.728L170.548 106.445H162.041L150.13 145.946C149.708 147.479 149.424 148.593 149.359 149.262C149.338 149.982 150.268 150.695 150.872 151.233C151.584 151.771 152.638 151.683 153.649 151.771C154.712 151.851 156.223 151.901 158.311 151.901H164.849L166.855 145.125L161.003 145.678C160.376 145.678 159.925 145.342 159.736 145.06ZM166.164 122.218H180.103L179.217 124.995C179.093 125.06 178.795 124.858 177.376 125.025H165.305L166.164 122.218ZM168.956 112.902H183.014L182.002 116.248C182.002 116.248 175.378 116.183 174.317 116.378C169.646 117.186 166.919 119.681 166.919 119.681L168.956 112.902ZM179.531 134.297C179.414 134.712 179.231 134.965 178.977 135.155C178.693 135.337 178.235 135.402 177.552 135.402H175.567L175.684 132.02H167.421L167.086 148.557C167.074 149.749 167.189 150.44 168.062 150.994C168.936 151.683 171.626 151.772 175.247 151.772H180.424L182.292 145.581L177.786 145.829L176.286 145.916C176.083 145.829 175.886 145.748 175.669 145.532C175.479 145.344 175.158 145.459 175.211 144.266L175.247 140.027L179.972 139.831C182.526 139.831 183.616 139 184.547 138.21C185.434 137.452 185.725 136.581 186.061 135.402L186.853 131.649H180.358L179.531 134.297Z" fill="#FEFEFE"/>
</svg>
