<svg width="1138" height="1024" viewBox="0 0 1138 1024" fill="none" xmlns="http://www.w3.org/2000/svg">
<path d="M818.905 488C818.905 619.656 790.935 738.823 745.739 825.058C700.53 911.316 638.162 964.5 569.405 964.5C500.649 964.5 438.28 911.316 393.071 825.058C347.875 738.823 319.905 619.656 319.905 488C319.905 356.344 347.875 237.177 393.071 150.942C438.28 64.6836 500.649 11.5 569.405 11.5C638.162 11.5 700.53 64.6836 745.739 150.942C790.935 237.177 818.905 356.344 818.905 488Z" stroke="#F200FF"/>
<path d="M694.142 286.719C816.535 352.552 913.333 434.71 970.902 514.301C1028.5 593.926 1046.73 670.825 1012.37 726.264C978.014 781.702 897.416 805.443 794.602 798.788C691.832 792.135 567.061 755.115 444.668 689.282C322.276 623.448 225.477 541.291 167.908 461.7C110.314 382.074 92.0843 305.176 126.44 249.737C160.796 194.299 241.394 170.558 344.208 177.213C446.978 183.866 571.749 220.886 694.142 286.719Z" stroke="#F200FF"/>
<path d="M694.142 689.281C571.749 755.114 446.978 792.135 344.208 798.787C241.394 805.442 160.796 781.702 126.44 726.263C92.0841 670.824 110.314 593.926 167.908 514.3C225.477 434.709 322.275 352.552 444.668 286.719C567.061 220.886 691.832 183.865 794.602 177.213C897.416 170.557 978.014 194.298 1012.37 249.737C1046.73 305.175 1028.5 382.074 970.902 461.699C913.333 541.29 816.534 623.448 694.142 689.281Z" stroke="#F200FF"/>
<g filter="url(#filter0_f_288_2)">
<path d="M814.905 512C814.905 643.271 787.011 761.941 742.082 847.665C697.066 933.555 635.487 985.5 568.405 985.5C501.323 985.5 439.744 933.555 394.728 847.665C349.799 761.941 321.905 643.271 321.905 512C321.905 380.729 349.799 262.059 394.728 176.335C439.744 90.445 501.323 38.5 568.405 38.5C635.487 38.5 697.066 90.445 742.082 176.335C787.011 262.059 814.905 380.729 814.905 512Z" stroke="#F200FF" stroke-width="7"/>
<path d="M691.561 313.269C813.654 378.941 910.082 460.832 967.346 540.002C1024.78 619.41 1042.11 694.97 1008.73 748.842C975.342 802.715 896.439 826.512 793.905 819.875C691.679 813.258 567.341 776.403 445.249 710.731C323.156 645.06 226.728 563.169 169.464 483.999C112.027 404.591 94.6967 329.031 128.082 275.158C161.468 221.286 240.372 197.488 342.905 204.126C445.131 210.743 569.469 247.598 691.561 313.269Z" stroke="#F200FF" stroke-width="7"/>
<path d="M691.561 710.731C569.469 776.402 445.131 813.257 342.905 819.875C240.371 826.512 161.468 802.715 128.082 748.842C94.6965 694.969 112.027 619.409 169.464 540.001C226.728 460.832 323.156 378.94 445.249 313.269C567.341 247.597 691.679 210.742 793.905 204.125C896.439 197.488 975.342 221.285 1008.73 275.158C1042.11 329.031 1024.78 404.59 967.346 483.998C910.082 563.168 813.654 645.059 691.561 710.731Z" stroke="#F200FF" stroke-width="7"/>
</g>
<defs>
<filter id="filter0_f_288_2" x="71.0995" y="-1.5" width="994.611" height="1027" filterUnits="userSpaceOnUse" color-interpolation-filters="sRGB">
<feFlood flood-opacity="0" result="BackgroundImageFix"/>
<feBlend mode="normal" in="SourceGraphic" in2="BackgroundImageFix" result="shape"/>
<feGaussianBlur stdDeviation="18.25" result="effect1_foregroundBlur_288_2"/>
</filter>
</defs>
</svg>
